<?xml version="1.0" encoding="UTF-8"?>
<!DOCTYPE svg  PUBLIC '-//W3C//DTD SVG 1.1//EN'  'http://www.w3.org/Graphics/SVG/1.1/DTD/svg11.dtd'>
<svg width="2.9354cm" height="1.2618cm" clip-rule="evenodd" fill-rule="evenodd" image-rendering="optimizeQuality" shape-rendering="geometricPrecision" text-rendering="geometricPrecision" version="1.1" viewBox="0 0 2927.9 1258.6" xml:space="preserve" xmlns="http://www.w3.org/2000/svg">
 <defs>
  <style type="text/css">
   
    .fil1 {fill:#FEFEFE;fill-rule:nonzero}
    .fil0 {fill:url(#a);fill-rule:nonzero}
   
  </style>
  <linearGradient id="a" x1="1797.7" x2="334.24" y1="576.95" y2="57.58" gradientUnits="userSpaceOnUse">
   <stop stop-color="#42A6E3" offset="0"/>
   <stop stop-color="#AC42ED" offset=".63137"/>
   <stop stop-color="#FF56F6" offset="1"/>
  </linearGradient>
 </defs>
 
  
  
   <path class="fil0" d="m401.75 232.4v-113.27h-274.97v135.62h274.97v-22.35zm1575.3 333.09h-109.36v-263.42c-76.07-99.17-149.58-201.55-224.06-302.07h148.89l134.47 182.26 134.99-182.26h148.29c-74.22 100.51-147.53 203-223.46 302.07v263.42h-9.77zm-358.76-555.73v555.73h-113.23l-4.17-6.91-276.69-356v362.91h-119.67v-565.48h112.3c84.5 85.06 203.14 259.92 282.34 361.81v-361.81h119.13v9.76zm-548.69 0v555.73h-113.22l-4.18-6.91-276.69-356v362.91h-119.67v-565.48h112.3c84.5 85.06 203.14 259.92 282.34 361.81v-361.81h119.13v9.76zm-667.81 445.81v-81.69h-274.97v191.61h-119.68v-470.27c0-26.3 10.71-50.06 27.91-67.26 17.33-17.29 41.19-27.96 67.31-27.96h323.34c26.32 0 50.11 10.61 67.35 27.83 17.25 17.27 27.87 41.05 27.87 67.39v470.27h-119.13v-109.92z"/>
   <path class="fil1" d="m130.61 1080.7v45.2h300.06v-112.96h-326.76c-20.44 0-39.51-6.08-55.58-16.49-16.6-10.76-30.01-26.2-38.41-44.37-3.06-6.49-5.61-13.69-7.33-21.18-1.64-7.11-2.58-14.52-2.58-21.87v-165.74c0-28.71 11.69-54.64 30.45-73.4 18.91-18.85 44.95-30.51 73.45-30.51h353.46c28.51 0 54.55 11.66 73.44 30.54 18.77 18.73 30.46 44.66 30.46 73.37v81.93h-130.6v-55.85h-300.06v112.97h326.75c20.52 0 39.79 6.11 55.99 16.6 16.61 10.75 29.95 26.16 38.02 44.33 3.1 6.8 5.65 14.05 7.38 21.54 1.6 6.94 2.51 14.14 2.51 21.43v166.33c0 28.4-11.57 54.2-30.22 72.98-18.67 18.79-44.52 30.55-72.99 30.88-35.22 2.2-344.99 3.29-354.85 0-28.23-0.33-54.12-12.16-72.88-31.03-18.65-18.77-30.31-44.5-30.31-72.83v-82.53h130.61v10.64zm2667.3-187.71v-123.6h-300.07v148h300.07v-24.4zm0 243.56v-89.16h-300.07v209.11h-130.6v-513.19c0-28.71 11.69-54.64 30.45-73.4 18.91-18.85 44.95-30.51 73.45-30.51h352.87c28.72 0 54.68 11.58 73.48 30.37 18.83 18.84 30.41 44.81 30.41 73.54v513.19h-130v-119.94zm-598.78-221.52v-145.64h-300.06v145.64h300.06zm130-171.72v198.4c0 28.47-11.62 54.48-30.36 73.35-18.71 18.82-44.51 30.56-72.94 30.56h-326.75v210.87h-130.61v-617.1h457.36c28.51 0 54.36 11.64 73.08 30.47 18.65 18.78 30.22 44.74 30.22 73.44zm-729.36 26.08h-300.08v145.64h300.08v-145.64zm119.95 487.1h-138.07l-143.76-210.87h-138.21v210.87h-129.99v-617.1h456.76c28.5 0 54.54 11.66 73.43 30.54 18.77 18.73 30.46 44.66 30.46 73.37v198.4c0 28.43-11.74 54.4-30.59 73.26-18.91 18.9-44.88 30.65-73.3 30.65h-30.49l23.26 34.48 120.64 176.39h-20.15zm-679.57-130.59h91.43v130.59h-532.15v-617.1h532.15v130h-401.55v112.97h348.69v130.59h-348.69v112.96h310.13z"/>
  
 
</svg>
